<svg width="313" height="313" viewBox="0 0 313 313" fill="none" xmlns="http://www.w3.org/2000/svg">
<path d="M294.273 18.7067C263.308 -12.2573 217.068 -4.70543 156.493 40.8798C95.9317 -4.70543 49.705 -12.2703 18.7133 18.7067C-12.2784 49.6838 -4.70004 95.908 40.8875 156.48C-4.70004 217.038 -12.2654 263.275 18.7133 294.252C24.5216 300.275 31.5012 305.045 39.2224 308.268C46.9437 311.491 55.2431 313.1 63.6095 312.995C89.3186 312.995 120.362 299.274 156.493 272.092C192.611 299.274 223.655 312.995 249.377 312.995C257.744 313.1 266.043 311.491 273.764 308.268C281.485 305.045 288.465 300.275 294.273 294.252C325.252 263.275 317.752 217.051 272.099 156.48C317.687 95.908 325.252 49.6838 294.273 18.7067ZM248.908 26.4151C253.892 26.265 258.855 27.1352 263.491 28.9721C268.128 30.809 272.34 33.574 275.869 37.0973C298.643 59.8834 281.817 98.5688 255.155 135.428C244.225 122.542 231.912 109.147 217.877 95.0994C203.842 81.0521 190.407 68.7395 177.52 57.7965C202.277 39.8885 227.868 26.4151 248.908 26.4151ZM238.812 156.48C225.625 172.392 211.655 187.274 199.472 199.521C187.289 211.769 172.407 225.607 156.493 238.794C140.58 225.607 125.697 211.638 113.515 199.521C101.332 187.404 87.362 172.392 74.1749 156.48C87.362 140.567 101.332 125.672 113.515 113.503C125.697 101.334 140.58 87.3519 156.493 74.1524C172.407 87.3258 187.289 101.321 199.537 113.503C211.785 125.685 225.625 140.567 238.812 156.48ZM37.1179 37.1103C40.6432 33.5809 44.8542 30.8111 49.4912 28.9716C54.1282 27.1321 59.0929 26.2621 64.0791 26.4151C85.1185 26.4151 110.71 39.8885 135.467 57.7965C122.58 68.7395 109.171 81.0521 95.1099 95.0994C81.0489 109.147 68.7618 122.49 57.8181 135.428C31.17 98.5688 14.3176 59.8834 37.1179 37.1103ZM37.1179 275.797C14.3437 253.024 31.17 214.325 57.8181 177.479C68.7618 190.365 81.075 203.76 95.1099 217.808C109.145 231.855 122.502 244.194 135.402 255.124C98.5535 281.809 59.866 298.648 37.1179 275.849V275.797ZM275.817 275.797C253.055 298.544 214.381 281.757 177.533 255.124C190.394 244.194 203.803 231.816 217.825 217.808C231.846 203.799 244.173 190.417 255.103 177.479C281.817 214.39 298.669 253.076 275.869 275.849L275.817 275.797Z" fill="#F7E018"/>
<path d="M156.493 182.566C170.901 182.566 182.581 170.886 182.581 156.48C182.581 142.073 170.901 130.394 156.493 130.394C142.086 130.394 130.406 142.073 130.406 156.48C130.406 170.886 142.086 182.566 156.493 182.566Z" fill="#F7E018"/>
</svg>
